<svg width="704" height="477" viewBox="0 0 704 477" fill="none" xmlns="http://www.w3.org/2000/svg">
<path d="M54.7744 120.938H223.31L299.15 196.877H435.383L481.028 149.064H593.385" stroke="#BBFFFF" stroke-width="2" stroke-linecap="round" stroke-linejoin="round"/>
<path d="M131.317 277.737H242.27L431.17 88.5944H690.292" stroke="#BBFFFF" stroke-width="2" stroke-linecap="round" stroke-linejoin="round"/>
<ellipse cx="264.038" cy="33.7503" rx="33.707" ry="33.7503" fill="url(#paint0_linear_27_3243)"/>
<ellipse cx="112.356" cy="120.938" rx="4.21338" ry="4.21878" fill="#BBFFFF"/>
<path d="M95.5029 119.532L112.356 116.72V125.157L95.5029 122.345V119.532Z" fill="url(#paint1_linear_27_3243)"/>
<path d="M210.669 133.595L254.207 177.189" stroke="#BBFFFF" stroke-width="2" stroke-linecap="round" stroke-linejoin="round"/>
<path d="M258.421 181.408L269.657 192.658" stroke="#BBFFFF" stroke-width="2" stroke-linecap="round" stroke-linejoin="round"/>
<path d="M476.111 279.846L519.65 323.44" stroke="#BBFFFF" stroke-width="2" stroke-linecap="round" stroke-linejoin="round"/>
<path d="M523.863 327.659L535.099 338.909" stroke="#BBFFFF" stroke-width="2" stroke-linecap="round" stroke-linejoin="round"/>
<path d="M492.966 167.233H617.26" stroke="#BBFFFF" stroke-width="2" stroke-linecap="round" stroke-linejoin="round"/>
<path d="M623.58 167.233H639.47" stroke="#BBFFFF" stroke-width="2" stroke-linecap="round" stroke-linejoin="round"/>
<path d="M646.052 167.233H679.057" stroke="#BBFFFF" stroke-width="2" stroke-linecap="round" stroke-linejoin="round"/>
<path d="M94.8008 259.104H166.428" stroke="#BBFFFF" stroke-width="2" stroke-linecap="round" stroke-linejoin="round"/>
<path d="M172.749 259.104H188.639" stroke="#BBFFFF" stroke-width="2" stroke-linecap="round" stroke-linejoin="round"/>
<path d="M195.22 259.104H228.225" stroke="#BBFFFF" stroke-width="2" stroke-linecap="round" stroke-linejoin="round"/>
<ellipse cx="542.122" cy="149.064" rx="4.21338" ry="4.21878" fill="#BBFFFF"/>
<path d="M525.268 147.657L542.121 144.845V153.283L525.268 150.47V147.657Z" fill="url(#paint2_linear_27_3243)"/>
<ellipse cx="644.647" cy="88.5944" rx="4.21338" ry="4.21878" fill="#BBFFFF"/>
<path d="M627.793 87.1881L644.646 84.3756V92.8132L627.793 90.0007V87.1881Z" fill="url(#paint3_linear_27_3243)"/>
<path d="M74.4365 361.409H233.14L339.177 255.236H478.219L536.504 313.596H653.776" stroke="#BBFFFF" stroke-width="2" stroke-linecap="round" stroke-linejoin="round"/>
<ellipse cx="200.838" cy="361.409" rx="4.21338" ry="4.21878" fill="#BBFFFF"/>
<path d="M183.984 360.003L200.838 357.19V365.628L183.984 362.815V360.003Z" fill="url(#paint4_linear_27_3243)"/>
<path d="M238.185 165.448C238.185 165.448 214.575 214.776 237.621 293.651C237.792 294.24 238.001 294.817 238.185 295.393C255.665 347.776 440.975 333.432 473.055 315.628C473.055 315.628 508.139 236.875 476.107 162.699C476.12 162.699 346.156 104.917 238.185 165.448Z" fill="#73FDAA"/>
<g style="mix-blend-mode:soft-light">
<mask id="mask0_27_3243" style="mask-type:alpha" maskUnits="userSpaceOnUse" x="227" y="137" width="263" height="195">
<path d="M238.185 165.448C238.185 165.448 214.575 214.776 237.621 293.651C237.792 294.24 238.001 294.817 238.185 295.393C255.665 347.776 440.975 333.432 473.055 315.628C473.055 315.628 508.139 236.875 476.107 162.699C476.12 162.699 346.156 104.917 238.185 165.448Z" fill="#315EFB"/>
</mask>
<g mask="url(#mask0_27_3243)">
<g style="mix-blend-mode:soft-light">
<path d="M229.007 190.444C229.007 190.444 221.918 230.402 237.45 297.587C237.45 297.587 244.041 332.966 342.908 338.674C429.843 343.696 474.474 319.43 474.474 319.43C474.474 319.43 491.67 289.855 493.611 275.426C493.611 275.426 386.673 318.497 281.216 282.996C221.294 262.825 229.007 190.444 229.007 190.444Z" fill="url(#paint5_linear_27_3243)"/>
</g>
</g>
</g>
<path d="M486.559 267.464L487.679 262.246C487.679 262.246 465.641 266.464 445.882 264.879C426.124 263.294 420.654 256.54 417.675 247.993C417.675 247.993 416.818 267.037 444.037 269.72C471.612 272.451 486.559 267.464 486.559 267.464Z" fill="white"/>
<path d="M491.497 262.496C491.497 262.496 497.627 245.317 493.201 218.849C493.201 218.849 476.272 209.29 445.014 212.088C413.755 214.886 411.144 237.206 417.089 253.747C423.672 272.005 465.179 268.987 491.497 262.496Z" fill="#010010"/>
<circle cx="439.03" cy="240.873" r="16.6119" fill="white"/>
<path d="M454.06 240.873C454.06 249.174 447.331 255.903 439.03 255.903C430.729 255.903 424 249.174 424 240.873C424 240.873 431.91 244.038 442.194 237.709C454.06 230.407 454.06 240.873 454.06 240.873Z" fill="url(#paint6_linear_27_3243)"/>
<path fill-rule="evenodd" clip-rule="evenodd" d="M433.875 238.393C435.583 238.393 436.968 236.997 436.968 235.277C436.968 233.556 435.583 232.161 433.875 232.161C432.167 232.161 430.782 233.556 430.782 235.277C430.782 236.997 432.167 238.393 433.875 238.393Z" fill="#73FDAA"/>
<path fill-rule="evenodd" clip-rule="evenodd" d="M444.185 248.78C445.893 248.78 447.278 247.385 447.278 245.664C447.278 243.943 445.893 242.548 444.185 242.548C442.477 242.548 441.092 243.943 441.092 245.664C441.092 247.385 442.477 248.78 444.185 248.78Z" fill="#73FDAA"/>
<path fill-rule="evenodd" clip-rule="evenodd" d="M444.106 233.2C442.354 233.2 440.934 234.631 440.934 236.396C440.934 238.161 442.354 239.592 444.106 239.592C445.858 239.592 447.278 238.161 447.278 236.396C447.278 234.631 445.858 233.2 444.106 233.2Z" fill="#73FDAA"/>
<path fill-rule="evenodd" clip-rule="evenodd" d="M433.956 243.427C432.204 243.427 430.784 244.857 430.784 246.622C430.784 248.387 432.204 249.818 433.956 249.818C435.708 249.818 437.128 248.387 437.128 246.622C437.128 244.857 435.708 243.427 433.956 243.427Z" fill="#73FDAA"/>
<path d="M265.777 52.5408C274.612 17.1314 343.787 3.00982 377.271 0.375195C432.492 -3.96992 428.285 30.4099 377.271 52.5408C360.65 59.7511 349.923 91.5333 315.213 100.491C301.767 103.961 254.732 96.8025 265.777 52.5408Z" fill="url(#paint7_linear_27_3243)"/>
<circle cx="4.21608" cy="4.21608" r="4.21608" transform="matrix(0.706653 0.70756 -0.706653 0.70756 510.671 281.764)" fill="#BBFFFF"/>
<path d="M499.747 274.804L513.651 284.747L507.692 290.714L497.761 276.792L499.747 274.804Z" fill="url(#paint8_linear_27_3243)"/>
<path d="M2.28123 294.049C-5.90206 275.007 9.8875 267.271 18.8052 265.783C65.2294 265.783 99.0646 294.049 122.67 299.999C146.276 305.95 178.537 304.462 221.027 327.521C263.517 350.579 272.173 371.406 294.991 392.977C317.81 414.548 336.695 401.159 368.169 403.391C399.643 405.622 410.659 427.937 368.169 445.045C325.679 462.153 305.22 445.789 272.173 445.045C239.125 444.301 195.848 407.854 178.537 383.307C161.226 358.761 134.473 337.934 99.0646 334.215C63.6561 330.496 12.5103 317.851 2.28123 294.049Z" fill="url(#paint9_linear_27_3243)"/>
<path d="M389.877 390.77L475.141 450.026L337.303 477L389.877 390.77Z" fill="url(#paint10_linear_27_3243)"/>
<path fill-rule="evenodd" clip-rule="evenodd" d="M620.664 367.208C621.961 360.899 628.175 356.586 634.542 357.576V357.576C640.91 358.565 645.02 364.482 643.722 370.791L643.369 372.506C642.072 378.815 635.858 383.128 629.491 382.139V382.139C623.124 381.149 619.014 375.233 620.311 368.923L620.664 367.208ZM630.704 368.517L625.003 367.627L623.874 369.819L629.575 370.709L630.704 368.517V368.517ZM639.111 366.025C639.594 366.1 640.183 366.436 640.361 367.126C640.54 367.815 640.386 368.131 639.984 368.957L639.984 368.958C639.582 369.785 638.319 372.255 637.831 373.125C637.343 373.995 636.633 374.679 635.835 375.009L635.764 375.039C635.018 375.348 634.705 375.478 633.746 375.33L623.624 373.761L624.843 371.417L634.363 372.892L636.797 368.2L627.354 366.736L628.573 364.392L639.111 366.025Z" fill="#73FDAA"/>
<path fill-rule="evenodd" clip-rule="evenodd" d="M549.895 397.405C555.845 388.398 568.037 385.864 577.128 391.745V391.745C586.218 397.625 588.764 409.694 582.815 418.701L581.6 420.54C575.65 429.547 563.458 432.081 554.367 426.201V426.201C545.277 420.32 542.73 408.251 548.68 399.244L549.895 397.405ZM556.262 408.617L558.214 408.988L553.378 413.574L567.262 422.562L570.866 419.138L562.54 413.747L566.05 410.405L568.014 410.756L570.799 408.124L568.852 407.785L575.109 401.847L569.579 398.267L561.051 406.334L559.062 405.982L556.263 408.618L556.262 408.617Z" fill="#73FDAA"/>
<path d="M579.641 240.089C581.194 227.2 588.833 222.668 592.458 222.013C608.383 226.729 627.026 213.369 641.009 217.298C654.991 221.227 665.866 240.089 672.469 246.376C679.072 252.663 712.863 258.95 701.211 278.598C689.559 298.245 671.692 278.598 644.116 273.096C616.539 267.595 618.481 285.278 606.052 290.779C593.623 296.28 583.913 287.635 579.641 278.598C575.368 269.56 577.699 256.2 579.641 240.089Z" fill="url(#paint11_linear_27_3243)"/>
<path fill-rule="evenodd" clip-rule="evenodd" d="M188.103 448.97C175.745 436.234 176.037 415.877 188.758 403.503V403.503C201.478 391.128 221.809 391.422 234.167 404.158V404.158C246.525 416.894 246.232 437.251 233.512 449.626V449.626C220.792 462 200.461 461.706 188.103 448.97V448.97Z" fill="white"/>
<path fill-rule="evenodd" clip-rule="evenodd" d="M185.343 448.937C173.006 436.232 173.207 415.826 185.9 403.47V403.47C198.594 391.114 218.972 391.486 231.31 404.191V404.191C243.647 416.896 243.446 437.302 230.752 449.658V449.658C218.059 462.015 197.681 461.643 185.343 448.937V448.937ZM223.969 442.69L200.371 438.534L216.109 434.589L216.111 434.591L220.508 418.946L223.969 442.69ZM192.681 410.444L218.678 417.074L214.189 432.612L198.547 436.657L192.681 410.444Z" fill="#73FDAA"/>
<path fill-rule="evenodd" clip-rule="evenodd" d="M591.704 199.941C598.143 192.037 609.766 190.854 617.661 197.303V197.303C625.556 203.752 626.734 215.39 620.295 223.294V223.294C613.857 231.197 602.234 232.38 594.338 225.931V225.931C586.443 219.483 585.265 207.844 591.704 199.941V199.941Z" fill="white"/>
<path fill-rule="evenodd" clip-rule="evenodd" d="M589.408 198.28C595.783 190.515 607.263 189.389 615.049 195.765V195.765C622.836 202.142 623.98 213.606 617.605 221.371L616.973 222.141C610.598 229.906 599.118 231.032 591.332 224.656V224.656C583.545 218.28 582.401 206.816 588.776 199.051L589.408 198.28ZM594.966 220.266L595.981 206.458L599.143 215.182L599.143 215.183L608.339 216.569L594.966 220.266ZM611.433 200.142L609.149 215.466L600.041 214.022L596.838 205.382L611.433 200.142Z" fill="#73FDAA"/>
<path d="M556.868 203.908H568.104" stroke="#28BC00" stroke-width="2" stroke-linecap="round" stroke-linejoin="round"/>
<path d="M574.424 215.158H544.931" stroke="#28BC00" stroke-width="2" stroke-linecap="round" stroke-linejoin="round"/>
<path d="M145.361 202.501H164.322" stroke="#28BC00" stroke-width="2" stroke-linecap="round" stroke-linejoin="round"/>
<path d="M179.771 213.752H150.277" stroke="#28BC00" stroke-width="2" stroke-linecap="round" stroke-linejoin="round"/>
<path fill-rule="evenodd" clip-rule="evenodd" d="M126.559 77.4298C121.818 69.5823 124.411 59.4567 132.351 54.8137V54.8137C140.291 50.1706 150.572 52.7683 155.313 60.6158L156.462 62.5162C161.203 70.3637 158.61 80.4893 150.67 85.1323V85.1323C142.73 89.7754 132.449 87.1777 127.708 79.3302L126.559 77.4298ZM148.586 70.8367L142.91 74.1738C143.052 73.3449 143.168 72.51 143.257 71.6703C143.51 69.5577 143.749 67.4427 143.975 65.3253C143.994 65.1524 144.025 64.9728 144.057 64.7909C144.147 64.2766 144.238 63.7479 144.071 63.324C143.776 62.5531 143.314 61.8363 142.839 61.0989C142.643 60.7976 142.451 60.4932 142.264 60.1859L138.742 62.2568L137.171 59.6436L134.348 61.3033L135.958 63.9827L132.726 65.8828L134.65 69.0836L140.094 65.883C140.041 66.2836 139.986 66.6587 139.934 67.0227C139.868 67.4859 139.804 67.9307 139.746 68.3865C139.494 70.4992 139.255 72.6144 139.03 74.7318C139.016 74.9202 138.986 75.1196 138.955 75.3211C138.879 75.8081 138.802 76.31 138.962 76.7161C139.258 77.4884 139.721 78.207 140.19 78.9344C140.379 79.2272 140.568 79.5209 140.748 79.8207L144.242 77.7668L145.833 80.4137L148.772 78.6857C148.476 78.2546 148.183 77.8213 147.893 77.386C147.607 76.9587 147.32 76.5313 147.017 76.0916L150.51 74.0382L148.586 70.8369L148.586 70.8367Z" fill="#73FDAA"/>
<path d="M158.002 92.8132L165.024 99.8445" stroke="#28BC00" stroke-width="2" stroke-linecap="round" stroke-linejoin="round"/>
<path d="M511.224 73.8288C511.224 52.4981 528.516 35.1566 549.846 35.1566V35.1566C571.177 35.1566 588.469 52.4981 588.469 73.8288V73.8288C588.469 95.1595 571.177 112.501 549.846 112.501V112.501C528.516 112.501 511.224 95.1595 511.224 73.8288V73.8288Z" fill="white"/>
<path fill-rule="evenodd" clip-rule="evenodd" d="M548.442 39.3752C528.662 39.3752 512.628 55.4555 512.628 75.2349C512.628 95.0143 528.662 111.095 548.442 111.095C568.221 111.095 584.255 95.0143 584.255 75.2349C584.255 55.4555 568.221 39.3752 548.442 39.3752ZM556.778 61.8889C561.663 63.5738 565.235 66.0994 564.533 70.7976C564.025 74.2368 562.121 75.9018 559.593 76.4855C563.064 78.295 564.831 81.07 563.148 85.8807C561.06 91.8555 556.099 92.3597 549.501 91.1096L547.9 97.5346L544.031 96.5691L545.611 90.2302C544.609 89.9809 543.584 89.716 542.528 89.4292L540.942 95.7978L537.078 94.8324L538.679 88.3953C538.319 88.3029 537.956 88.2082 537.591 88.1128L537.588 88.1122L537.588 88.1121L537.587 88.1119C537.038 87.9685 536.483 87.8235 535.921 87.6825L530.886 86.4258L532.807 81.9913C532.807 81.9913 535.657 82.7504 535.619 82.6942C536.714 82.9656 537.2 82.2506 537.392 81.774L539.922 71.6174C540.017 71.6402 540.11 71.6636 540.2 71.6861L540.331 71.7189C540.177 71.6571 540.037 71.6174 539.929 71.5898L541.734 64.3395C541.781 63.5164 541.498 62.4781 539.931 62.0864C539.991 62.0456 537.121 61.3869 537.121 61.3869L538.15 57.2493L543.486 58.5832L543.481 58.6031C544.284 58.8028 545.11 58.9926 545.952 59.1846L547.538 52.8225L551.404 53.788L549.851 60.0253C550.889 60.2626 551.933 60.502 552.95 60.7558L554.493 54.5592L558.362 55.5247L556.778 61.8889ZM555.693 83.2095C554.596 87.6231 547.697 85.7984 544.54 84.9635C544.256 84.8884 544.002 84.8213 543.785 84.7675L545.91 76.2395C546.174 76.3054 546.496 76.3777 546.861 76.4597C550.126 77.1933 556.817 78.6967 555.693 83.2095ZM547.517 72.5021C550.149 73.2054 555.89 74.7395 556.89 70.7281C557.911 66.625 552.331 65.3881 549.606 64.7841C549.299 64.7161 549.029 64.6562 548.808 64.6011L546.882 72.3357C547.064 72.3811 547.277 72.4382 547.517 72.5021Z" fill="#73FDAA"/>
<path fill-rule="evenodd" clip-rule="evenodd" d="M99.2436 191.72C90.1971 199.745 89.3634 213.597 97.3679 222.644C105.372 231.691 119.206 232.532 128.252 224.507C137.299 216.482 138.133 202.63 130.128 193.583C122.124 184.536 108.29 183.695 99.2436 191.72ZM112.162 198.627C115.077 197.415 117.732 197.12 119.311 199.553C120.47 201.332 120.273 202.866 119.353 204.159C121.672 203.578 123.602 204.13 124.778 207.013C126.239 210.592 124.174 212.836 120.652 214.942L122.518 218.53L120.358 219.658L118.517 216.118C117.958 216.411 117.382 216.706 116.784 217.003L118.634 220.559L116.476 221.686L114.605 218.093C114.403 218.197 114.198 218.301 113.992 218.406L113.991 218.406L113.99 218.407C113.681 218.564 113.369 218.723 113.056 218.886L110.245 220.355L109.33 217.547C109.33 217.547 110.941 216.738 110.9 216.728C111.511 216.407 111.444 215.883 111.339 215.587L108.389 209.916C108.441 209.888 108.493 209.861 108.544 209.835L108.617 209.797C108.521 209.831 108.441 209.87 108.38 209.901L106.274 205.853C105.963 205.457 105.413 205.097 104.538 205.554C104.55 205.511 102.97 206.375 102.97 206.375L101.768 204.065L104.747 202.51L104.753 202.521C105.201 202.286 105.656 202.038 106.118 201.784L104.27 198.231L106.429 197.103L108.241 200.586C108.812 200.273 109.386 199.959 109.954 199.662L108.153 196.202L110.313 195.074L112.162 198.627ZM120.278 208.849C121.581 211.325 117.701 213.261 115.926 214.147L115.926 214.147C115.766 214.227 115.623 214.298 115.503 214.36L112.987 209.575C113.133 209.499 113.309 209.403 113.508 209.294C115.291 208.317 118.946 206.317 120.278 208.849ZM112.252 207.236C113.734 206.5 116.969 204.897 115.785 202.646C114.574 200.344 111.535 202.02 110.051 202.838C109.884 202.93 109.736 203.012 109.613 203.075L111.896 207.414C111.997 207.362 112.117 207.302 112.252 207.236Z" fill="#73FDAA"/>
<path d="M234.545 390.237L256.314 368.44" stroke="#28BC00" stroke-width="2" stroke-linecap="round" stroke-linejoin="round"/>
<path d="M248.589 392.347L278.785 362.112" stroke="#28BC00" stroke-width="2" stroke-linecap="round" stroke-linejoin="round"/>
<path d="M495.774 125.86L511.926 109.688" stroke="#28BC00" stroke-width="2" stroke-linecap="round" stroke-linejoin="round"/>
<path d="M523.161 113.907L496.477 140.626" stroke="#28BC00" stroke-width="2" stroke-linecap="round" stroke-linejoin="round"/>
<path d="M161.513 83.6726L176.962 99.1415" stroke="#28BC00" stroke-width="2" stroke-linecap="round" stroke-linejoin="round"/>
<path d="M535.099 369.847L544.93 379.691" stroke="#28BC00" stroke-width="2" stroke-linecap="round" stroke-linejoin="round"/>
<path d="M516.841 366.331L540.717 390.237" stroke="#28BC00" stroke-width="2" stroke-linecap="round" stroke-linejoin="round"/>
<path d="M615.855 345.94L621.473 351.565" stroke="#28BC00" stroke-width="2" stroke-linecap="round" stroke-linejoin="round"/>
<path d="M601.811 344.534L611.642 354.378" stroke="#28BC00" stroke-width="2" stroke-linecap="round" stroke-linejoin="round"/>
<defs>
<linearGradient id="paint0_linear_27_3243" x1="304.541" y1="94.4463" x2="230.205" y2="-9.75376" gradientUnits="userSpaceOnUse">
<stop stop-color="#28BC00"/>
<stop offset="1" stop-color="#28BC00" stop-opacity="0"/>
</linearGradient>
<linearGradient id="paint1_linear_27_3243" x1="104.632" y1="120.939" x2="90.5873" y2="120.939" gradientUnits="userSpaceOnUse">
<stop stop-color="#73FDAA" stop-opacity="0.89"/>
<stop offset="1" stop-color="#EEEEFF" stop-opacity="0"/>
</linearGradient>
<linearGradient id="paint2_linear_27_3243" x1="534.397" y1="149.064" x2="520.352" y2="149.064" gradientUnits="userSpaceOnUse">
<stop stop-color="#73FDAA" stop-opacity="0.89"/>
<stop offset="1" stop-color="#EEEEFF" stop-opacity="0"/>
</linearGradient>
<linearGradient id="paint3_linear_27_3243" x1="636.922" y1="88.5944" x2="622.877" y2="88.5944" gradientUnits="userSpaceOnUse">
<stop stop-color="#73FDAA" stop-opacity="0.89"/>
<stop offset="1" stop-color="#EEEEFF" stop-opacity="0"/>
</linearGradient>
<linearGradient id="paint4_linear_27_3243" x1="193.113" y1="361.409" x2="179.069" y2="361.409" gradientUnits="userSpaceOnUse">
<stop stop-color="#73FDAA" stop-opacity="0.89"/>
<stop offset="1" stop-color="#EEEEFF" stop-opacity="0"/>
</linearGradient>
<linearGradient id="paint5_linear_27_3243" x1="504.674" y1="312.223" x2="153.571" y2="273.093" gradientUnits="userSpaceOnUse">
<stop/>
<stop offset="1" stop-opacity="0"/>
</linearGradient>
<linearGradient id="paint6_linear_27_3243" x1="455.305" y1="252.101" x2="415.601" y2="248.545" gradientUnits="userSpaceOnUse">
<stop stop-color="#DADAFF"/>
<stop offset="1" stop-color="#EEEEFF" stop-opacity="0"/>
</linearGradient>
<linearGradient id="paint7_linear_27_3243" x1="423.465" y1="82.7273" x2="221.506" y2="63.83" gradientUnits="userSpaceOnUse">
<stop stop-color="#DADAFF"/>
<stop offset="1" stop-color="#EEEEFF" stop-opacity="0"/>
</linearGradient>
<linearGradient id="paint8_linear_27_3243" x1="505.209" y1="282.261" x2="495.265" y2="272.33" gradientUnits="userSpaceOnUse">
<stop stop-color="#73FDAA" stop-opacity="0.89"/>
<stop offset="1" stop-color="#EEEEFF" stop-opacity="0"/>
</linearGradient>
<linearGradient id="paint9_linear_27_3243" x1="412.469" y1="418.599" x2="-105.946" y2="350.627" gradientUnits="userSpaceOnUse">
<stop stop-color="#DADAFF"/>
<stop offset="1" stop-color="#EEEEFF" stop-opacity="0"/>
</linearGradient>
<linearGradient id="paint10_linear_27_3243" x1="494.736" y1="476.507" x2="409.231" y2="338.489" gradientUnits="userSpaceOnUse">
<stop stop-color="#28BC00"/>
<stop offset="1" stop-color="#28BC00" stop-opacity="0"/>
</linearGradient>
<linearGradient id="paint11_linear_27_3243" x1="708.872" y1="278.61" x2="542.345" y2="261.447" gradientUnits="userSpaceOnUse">
<stop stop-color="#DADAFF"/>
<stop offset="1" stop-color="#EEEEFF" stop-opacity="0"/>
</linearGradient>
</defs>
</svg>
