<svg width="301" height="47" viewBox="0 0 301 47" fill="none" xmlns="http://www.w3.org/2000/svg">
<path d="M16.5207 11.6072V13.9025H14.6055V16.7079H16.5207V25.0474H20.4574V16.7079H23.0984C23.0984 16.7079 23.3473 15.3627 23.467 13.8909H20.4726V11.9739C20.4726 11.6855 20.902 11.3005 21.3276 11.3005H23.4708V8.37842H20.5543C16.4238 8.37842 16.5207 11.1871 16.5207 11.6072Z" fill="white"/>
<path d="M7.6 3.37774C6.59218 3.37774 5.62563 3.72898 4.91299 4.35419C4.20036 4.9794 3.8 5.82736 3.8 6.71154V26.7143C3.8 27.5985 4.20036 28.4465 4.91299 29.0717C5.62563 29.6969 6.59218 30.0481 7.6 30.0481H30.4C31.4078 30.0481 32.3744 29.6969 33.087 29.0717C33.7996 28.4465 34.2 27.5985 34.2 26.7143V6.71154C34.2 5.82736 33.7996 4.9794 33.087 4.35419C32.3744 3.72898 31.4078 3.37774 30.4 3.37774H7.6ZM7.6 0.0439453H30.4C32.4156 0.0439453 34.3487 0.746422 35.774 1.99684C37.1993 3.24726 38 4.94319 38 6.71154V26.7143C38 28.4827 37.1993 30.1786 35.774 31.429C34.3487 32.6794 32.4156 33.3819 30.4 33.3819H7.6C5.58435 33.3819 3.65126 32.6794 2.22599 31.429C0.800712 30.1786 0 28.4827 0 26.7143V6.71154C0 4.94319 0.800712 3.24726 2.22599 1.99684C3.65126 0.746422 5.58435 0.0439453 7.6 0.0439453V0.0439453Z" fill="white"/>
<path d="M84 0.0439453C78.8349 0.0439453 78.1912 0.0658261 76.1698 0.140846C74.1401 0.228369 72.7672 0.504484 71.5558 0.917093C70.288 1.33702 69.1397 1.99448 68.1912 2.84364C67.2206 3.67386 66.4708 4.68177 65.9952 5.79547C65.5249 6.85825 65.2102 8.06273 65.1105 9.84341C65.019 11.6178 65 12.1815 65 16.7129C65 21.2443 65.0249 21.8091 65.1105 23.5825C65.2102 25.3579 65.5249 26.5676 65.9952 27.6304C66.4739 28.7427 67.2233 29.7501 68.1912 30.5822C69.1375 31.4338 70.2864 32.0916 71.5558 32.5088C72.7672 32.9162 74.1461 33.1975 76.1698 33.285C78.1924 33.3653 78.8349 33.3819 84 33.3819C89.1651 33.3819 89.8088 33.36 91.8302 33.285C93.8539 33.1975 95.2328 32.9151 96.4442 32.5088C97.712 32.0889 98.8603 31.4314 99.8088 30.5822C100.781 29.7529 101.531 28.7447 102.005 27.6304C102.469 26.5676 102.79 25.3579 102.89 23.5825C102.981 21.808 103 21.2443 103 16.7129C103 12.1815 102.975 11.6168 102.89 9.84341C102.79 8.06794 102.468 6.852 102.005 5.79547C101.526 4.68315 100.777 3.67581 99.8088 2.84364C98.8635 1.99101 97.7144 1.33301 96.4442 0.917093C95.2328 0.504484 93.8539 0.228369 91.8302 0.140846C89.8076 0.0606164 89.1651 0.0439453 84 0.0439453ZM84 3.04474C89.0724 3.04474 89.6781 3.06662 91.6829 3.14164C93.5321 3.2177 94.5392 3.48861 95.2078 3.71783C96.0345 3.98553 96.7826 4.41161 97.3979 4.96504C98.0276 5.5025 98.5115 6.15738 98.8135 6.88117C99.0748 7.46778 99.3836 8.35135 99.4703 9.97365C99.5558 11.7325 99.5808 12.2649 99.5808 16.714C99.5808 21.1631 99.5558 21.6955 99.4632 23.4543C99.3634 25.0766 99.0546 25.9602 98.7945 26.5468C98.4347 27.3293 98.0333 27.8763 97.3705 28.4681C96.7533 29.0181 96.0056 29.4421 95.1805 29.7101C94.5202 29.9393 93.4988 30.2103 91.6425 30.2863C89.6271 30.3613 89.0333 30.3832 83.9477 30.3832C78.8622 30.3832 78.2696 30.3613 76.2518 30.2801C74.4026 30.1925 73.3824 29.9216 72.7138 29.6934C71.8112 29.3777 71.1924 29.0256 70.5297 28.4442C69.861 27.8575 69.4359 27.2991 69.1081 26.5228C68.842 25.9435 68.538 25.0474 68.4394 23.4189C68.3717 21.6715 68.3397 21.1297 68.3397 16.689C68.3397 12.2503 68.3717 11.7074 68.4394 9.93823C68.538 8.30967 68.842 7.41569 69.1081 6.83428C69.4359 6.04136 69.8622 5.49955 70.5297 4.91294C71.1912 4.33258 71.8112 3.95748 72.7138 3.66365C73.3824 3.43547 74.3777 3.16456 76.234 3.08329C78.2494 3.01973 78.8432 2.99681 83.9216 2.99681L84 3.04474ZM84 8.15755C82.7189 8.15714 81.4503 8.3782 80.2667 8.80811C79.0831 9.23802 78.0076 9.86834 77.1017 10.6631C76.1959 11.4578 75.4774 12.4013 74.9874 13.4397C74.4974 14.4782 74.2454 15.5911 74.2458 16.715C74.2454 17.8389 74.4974 18.9519 74.9874 19.9903C75.4774 21.0287 76.1959 21.9723 77.1017 22.767C78.0076 23.5617 79.0831 24.192 80.2667 24.6219C81.4503 25.0518 82.7189 25.2729 84 25.2725C85.2811 25.2729 86.5497 25.0518 87.7333 24.6219C88.9169 24.192 89.9924 23.5617 90.8983 22.767C91.8041 21.9723 92.5226 21.0287 93.0126 19.9903C93.5026 18.9519 93.7546 17.8389 93.7542 16.715C93.7546 15.5911 93.5026 14.4782 93.0126 13.4397C92.5226 12.4013 91.8041 11.4578 90.8983 10.6631C89.9924 9.86834 88.9169 9.23802 87.7333 8.80811C86.5497 8.3782 85.2811 8.15714 84 8.15755V8.15755ZM84 22.2717C80.4988 22.2717 77.6663 19.7867 77.6663 16.715C77.6663 13.6434 80.4988 11.1583 84 11.1583C87.5012 11.1583 90.3337 13.6434 90.3337 16.715C90.3337 19.7867 87.5012 22.2717 84 22.2717ZM96.4276 7.81579C96.4269 8.34683 96.186 8.85593 95.7578 9.23124C95.3296 9.60655 94.749 9.81736 94.1437 9.81736C93.8444 9.81736 93.548 9.76564 93.2715 9.66516C92.995 9.56468 92.7438 9.4174 92.5321 9.23173C92.3205 9.04606 92.1526 8.82564 92.0381 8.58305C91.9236 8.34046 91.8646 8.08045 91.8646 7.81788C91.8646 7.5553 91.9236 7.29529 92.0381 7.05271C92.1526 6.81012 92.3205 6.58969 92.5321 6.40402C92.7438 6.21836 92.995 6.07107 93.2715 5.97059C93.548 5.87011 93.8444 5.81839 94.1437 5.81839C95.3991 5.81839 96.4276 6.71446 96.4276 7.81579V7.81579Z" fill="white"/>
<path d="M143.667 38.4583H138.542V21.375H143.667V38.4583ZM162.459 38.4583H157.334V29.3324C157.334 26.9544 156.486 25.7705 154.807 25.7705C153.476 25.7705 152.632 26.4334 152.209 27.7608V38.4583H147.084C147.084 38.4583 147.152 23.0833 147.084 21.375H151.129L151.442 24.7917H151.548C152.598 23.0833 154.277 21.9251 156.58 21.9251C158.331 21.9251 159.748 22.412 160.829 23.6351C161.917 24.86 162.459 26.5034 162.459 28.8114V38.4583Z" fill="white"/>
<path d="M141.104 19.6667C142.566 19.6667 143.752 18.5195 143.752 17.1042C143.752 15.689 142.566 14.5417 141.104 14.5417C139.642 14.5417 138.456 15.689 138.456 17.1042C138.456 18.5195 139.642 19.6667 141.104 19.6667Z" fill="white"/>
<rect x="133.5" y="10.5" width="35" height="35" rx="3.5" stroke="white" stroke-width="3"/>
<g clip-path="url(#clip0_27_3654)">
<path opacity="0.2" d="M276.321 29.0836L293 17.0911C292.882 17.0355 292.753 17.0047 292.623 17.0005C292.492 16.9963 292.362 17.0188 292.24 17.0667L269.617 25.9116C268.71 26.2654 268.833 27.583 269.789 27.7782L276.321 29.0836ZM281.823 33.9025L278 37.7088C277.863 37.8467 277.689 37.9411 277.498 37.9801C277.308 38.019 277.11 38.0007 276.93 37.9274C276.75 37.8542 276.596 37.7294 276.488 37.5688C276.379 37.4082 276.321 37.2192 276.321 37.0256V29.0836L281.823 33.9025Z" fill="white"/>
<path d="M293.364 16.4476C293.107 16.227 292.797 16.0811 292.466 16.0254C292.135 15.9696 291.795 16.0061 291.482 16.131L270.174 24.6334C269.801 24.7781 269.484 25.0436 269.273 25.389C269.063 25.7344 268.97 26.1406 269.009 26.545C269.043 26.9493 269.206 27.3312 269.472 27.6336C269.739 27.9359 270.094 28.1424 270.486 28.2221L275.9 29.3127V36.185C275.899 36.5568 276.008 36.9203 276.211 37.2293C276.415 37.5383 276.704 37.779 277.042 37.9207C277.266 38.0123 277.505 38.06 277.746 38.0614C277.989 38.0623 278.229 38.014 278.453 37.9194C278.677 37.8247 278.88 37.6856 279.051 37.5103L282.052 34.4728L286.588 38.5305C286.923 38.8306 287.353 38.9973 287.8 38.9996C287.996 39.0038 288.192 38.972 288.377 38.9058C288.682 38.8079 288.956 38.6309 289.173 38.3923C289.389 38.1537 289.541 37.8618 289.612 37.5454L293.952 18.2888C294.028 17.9566 294.013 17.6095 293.91 17.2851C293.806 16.9607 293.617 16.6712 293.364 16.4476V16.4476ZM276.604 27.5419L270.855 26.3808L286.969 19.9424L276.604 27.5419ZM277.746 36.185V30.6262L280.655 33.2297L277.746 36.185ZM287.812 37.1232L278.3 28.6208L292.002 18.5703L287.812 37.1232Z" fill="white"/>
<rect x="264.5" y="10.5" width="35" height="35" rx="3.5" stroke="white" stroke-width="3"/>
</g>
<path fill-rule="evenodd" clip-rule="evenodd" d="M212.135 18.2869C212.059 18.275 211.982 18.2732 211.906 18.2815C210.392 18.4453 208.088 19.2625 206.728 20.0005C206.638 20.0495 206.557 20.1141 206.49 20.1913C205.925 20.8375 205.412 21.8905 205.01 22.8877C204.596 23.9101 204.254 24.9901 204.062 25.7713C203.425 28.3093 203.077 31.3567 203.03 34.2475C203.029 34.3918 203.063 34.5341 203.131 34.6615C203.671 35.6929 204.836 36.6487 206.002 37.3471C207.181 38.0545 208.558 38.6125 209.667 38.7205C209.8 38.7332 209.934 38.7149 210.058 38.6671C210.183 38.6194 210.295 38.5434 210.385 38.4451C210.662 38.1445 211.134 37.4425 211.49 36.8971C211.652 36.6487 211.805 36.4111 211.924 36.2221C213.116 36.4381 214.61 36.5641 216.5 36.5641C218.386 36.5641 219.88 36.4381 221.072 36.2221C221.191 36.4129 221.342 36.6487 221.504 36.8953C221.86 37.4425 222.332 38.1445 222.611 38.4451C222.701 38.5434 222.813 38.6194 222.937 38.6671C223.062 38.7149 223.196 38.7332 223.329 38.7205C224.438 38.6125 225.813 38.0545 226.992 37.3471C228.158 36.6487 229.323 35.6929 229.865 34.6615C229.932 34.5339 229.966 34.3916 229.964 34.2475C229.919 31.3567 229.57 28.3075 228.936 25.7695C228.681 24.7893 228.363 23.8267 227.984 22.8877C227.582 21.8905 227.069 20.8357 226.506 20.1913C226.438 20.114 226.357 20.0493 226.267 20.0005C224.908 19.2625 222.604 18.4453 221.088 18.2815C221.012 18.2733 220.936 18.2751 220.861 18.2869C220.522 18.3522 220.204 18.4992 219.934 18.7153C219.33 19.2014 218.842 19.8156 218.505 20.5135C217.838 20.4612 217.169 20.4354 216.5 20.4361C215.776 20.4361 215.107 20.4631 214.489 20.5117C214.152 19.8144 213.663 19.2008 213.06 18.7153C212.791 18.4995 212.473 18.3525 212.135 18.2869V18.2869ZM222.832 35.7685C223.085 36.1586 223.345 36.5445 223.612 36.9259C224.324 36.7639 225.233 36.3859 226.105 35.8639C227.082 35.2789 227.858 34.6039 228.232 34.0333C228.173 31.3225 227.838 28.5073 227.26 26.1889C227.025 25.2859 226.731 24.3991 226.382 23.5339C226.022 22.6375 225.635 21.8779 225.298 21.4423C224.128 20.8357 222.283 20.1949 221.081 20.0203C221.045 20.0422 221.01 20.0663 220.976 20.0923C220.827 20.2096 220.691 20.3424 220.57 20.4883C220.499 20.5728 220.431 20.6599 220.366 20.7493C220.915 20.8501 221.405 20.9707 221.839 21.1039C223.07 21.4819 223.957 22.0039 224.391 22.5817C224.528 22.765 224.587 22.9954 224.555 23.2223C224.523 23.4491 224.401 23.6538 224.218 23.7913C224.127 23.8594 224.024 23.9089 223.914 23.9371C223.804 23.9652 223.69 23.9715 223.578 23.9554C223.351 23.923 223.146 23.8018 223.009 23.6185C222.902 23.4781 222.44 23.0965 221.331 22.7545C220.26 22.4269 218.685 22.1641 216.5 22.1641C214.315 22.1641 212.738 22.4269 211.669 22.7563C210.56 23.0983 210.097 23.4763 209.991 23.6185C209.923 23.7093 209.838 23.7857 209.74 23.8436C209.642 23.9014 209.534 23.9394 209.422 23.9554C209.195 23.9878 208.965 23.9288 208.781 23.7913C208.691 23.7232 208.614 23.6379 208.556 23.5403C208.498 23.4427 208.46 23.3346 208.444 23.2223C208.412 22.9954 208.471 22.765 208.609 22.5817C209.042 22.0021 209.93 21.4837 211.161 21.1057C211.593 20.9707 212.083 20.8519 212.63 20.7511C212.565 20.6607 212.497 20.573 212.425 20.4883C212.304 20.3425 212.168 20.2097 212.02 20.0923C211.986 20.0662 211.95 20.0422 211.913 20.0203C210.713 20.1949 208.868 20.8357 207.698 21.4423C207.359 21.8797 206.974 22.6375 206.612 23.5339C206.229 24.4879 205.91 25.4905 205.736 26.1889C205.156 28.5073 204.821 31.3225 204.764 34.0333C205.138 34.6057 205.912 35.2789 206.89 35.8657C207.763 36.3877 208.67 36.7657 209.384 36.9259C209.653 36.5463 209.913 36.1604 210.164 35.7685C208.751 35.2663 207.993 34.5769 207.5 33.8389C207.437 33.7444 207.393 33.6383 207.371 33.5269C207.349 33.4155 207.35 33.3009 207.372 33.1896C207.394 33.0782 207.439 32.9724 207.502 32.8781C207.565 32.7839 207.646 32.703 207.741 32.6401C207.835 32.5772 207.941 32.5336 208.053 32.5117C208.164 32.4898 208.279 32.49 208.39 32.5124C208.502 32.5348 208.607 32.5789 208.702 32.6422C208.796 32.7055 208.877 32.7868 208.94 32.8813C209.408 33.5869 210.639 34.8361 216.5 34.8361C222.362 34.8361 223.592 33.5869 224.06 32.8813C224.187 32.6903 224.384 32.5577 224.609 32.5124C224.834 32.4672 225.068 32.5131 225.259 32.6401C225.449 32.7671 225.582 32.9647 225.627 33.1896C225.673 33.4144 225.627 33.6479 225.5 33.8389C225.007 34.5769 224.247 35.2681 222.832 35.7685ZM210.344 27.6217C210.783 27.1501 211.379 26.8837 212 26.8801C212.621 26.8837 213.217 27.1501 213.656 27.6217C214.093 28.0951 214.34 28.7341 214.34 29.4001C214.34 30.0661 214.093 30.7051 213.656 31.1785C213.217 31.6501 212.621 31.9165 212 31.9201C211.688 31.9168 211.379 31.8493 211.095 31.7217C210.81 31.5941 210.554 31.4092 210.344 31.1785C209.9 30.6928 209.656 30.0578 209.66 29.4001C209.66 28.7341 209.906 28.0951 210.344 27.6217V27.6217ZM221 26.8801C220.379 26.8837 219.783 27.1501 219.344 27.6217C218.906 28.0951 218.66 28.7341 218.66 29.4001C218.66 30.0661 218.906 30.7051 219.344 31.1785C219.783 31.6501 220.379 31.9165 221 31.9201C221.621 31.9165 222.217 31.6501 222.656 31.1785C223.093 30.7051 223.34 30.0661 223.34 29.4001C223.34 28.7341 223.093 28.0951 222.656 27.6217C222.445 27.391 222.19 27.2061 221.905 27.0785C221.62 26.9509 221.312 26.8834 221 26.8801V26.8801Z" fill="white"/>
<rect x="199.5" y="10.5" width="35" height="35" rx="3.5" stroke="white" stroke-width="3"/>
<defs>
<clipPath id="clip0_27_3654">
<rect width="38" height="38" fill="white" transform="translate(263 9)"/>
</clipPath>
</defs>
</svg>
